# xmcd
#
# Track frame offsets:
#	150
#	17956
#	34797
#	55803
#	74219
#	88221
#	106643
#	121487
#	144859
#	162099
#	174047
#	197555
#
# Disc length: 2907 seconds
#
# Revision: 0
# Processed by: cddbd v1.5.2PL0 Copyright (c) Steve Scherf et al.
# Submitted via: dBpowerAMP V4.0
#
DISCID=9c0b590c
DTITLE=Culls, the - If your Horse returns alone
DYEAR=2007
DGENRE=Country
TTITLE0=Mathematician Blues
TTITLE1=They Get Mexico
TTITLE2=A Warning Shot From The Lord
TTITLE3=Dawn
TTITLE4=Mule
TTITLE5=Country Boy's Revenge
TTITLE6=If your Horse returns alone
TTITLE7=The Sky's too Good A Blanket
TTITLE8=Sage and Sky
TTITLE9=The Fall
TTITLE10=Dirt in my Mouth
TTITLE11=The Man Who Killed Everyone
EXTD=
EXTT0=
EXTT1=
EXTT2=
EXTT3=
EXTT4=
EXTT5=
EXTT6=
EXTT7=
EXTT8=
EXTT9=
EXTT10=
EXTT11=
PLAYORDER=
